name Walk5.mot
datacolumns 19
datarows 27
range 1.18000000 1.20600000
endheader

                time	   L_ground_force_vx	   L_ground_force_vy	   L_ground_force_vz	   L_ground_force_px	   L_ground_force_py	   L_ground_force_pz	   R_ground_force_vx	   R_ground_force_vy	   R_ground_force_vz	   R_ground_force_px	   R_ground_force_py	   R_ground_force_pz	   L_ground_torque_x	   L_ground_torque_y	   L_ground_torque_z	   R_ground_torque_x	   R_ground_torque_y	   R_ground_torque_z	
          1.18000000	          0.00000000	          0.00000000	          0.00000000	          0.00000000	          0.00000000	          0.00000000	          0.00000000	          0.00000000	          0.00000000	          0.00000000	          0.00000000	          0.00000000	          0.00000000	          0.00000000	          0.00000000	          0.00000000	          0.00000000	          0.00000000	
          1.18100000	          0.00000000	          0.00000000	          0.00000000	          0.00000000	          0.00000000	          0.00000000	          0.00000000	          0.00000000	          0.00000000	          0.00000000	          0.00000000	          0.00000000	          0.00000000	          0.00000000	          0.00000000	          0.00000000	          0.00000000	          0.00000000	
          1.18200000	          0.00000000	          0.00000000	          0.00000000	          0.00000000	          0.00000000	          0.00000000	          0.00000000	          0.00000000	          0.00000000	          0.00000000	          0.00000000	          0.00000000	          0.00000000	          0.00000000	          0.00000000	          0.00000000	          0.00000000	          0.00000000	
          1.18300000	          0.00000000	          0.00000000	          0.00000000	          0.00000000	          0.00000000	          0.00000000	          0.00000000	          0.00000000	          0.00000000	          0.00000000	          0.00000000	          0.00000000	          0.00000000	          0.00000000	          0.00000000	          0.00000000	          0.00000000	          0.00000000	
          1.18400000	          0.00000000	          0.00000000	          0.00000000	          0.00000000	          0.00000000	          0.00000000	         -8.79751550	         12.60831286	         -1.02698267	         -0.28551949	          0.00000000	          0.29791506	          0.00000000	          0.00000000	          0.00000000	          0.00000000	         -0.26590611	          0.00000000	
          1.18500000	          0.00000000	          0.00000000	          0.00000000	          0.00000000	          0.00000000	          0.00000000	        -13.88166921	         22.35860652	         -1.62602906	         -0.29550783	          0.00000000	          0.30936808	          0.00000000	          0.00000000	          0.00000000	          0.00000000	         -0.24230947	          0.00000000	
          1.18600000	          0.00000000	          0.00000000	          0.00000000	          0.00000000	          0.00000000	          0.00000000	        -19.81658168	         36.15678711	         -2.27791198	         -0.30363441	          0.00000000	          0.31765722	          0.00000000	          0.00000000	          0.00000000	          0.00000000	         -0.16467503	          0.00000000	
          1.18700000	          0.00000000	          0.00000000	          0.00000000	          0.00000000	          0.00000000	          0.00000000	        -26.38994550	         55.13269489	         -2.89318924	         -0.31022746	          0.00000000	          0.32336745	          0.00000000	          0.00000000	          0.00000000	          0.00000000	         -0.05850902	          0.00000000	
          1.18800000	          0.00000000	          0.00000000	          0.00000000	          0.00000000	          0.00000000	          0.00000000	        -33.30272441	         80.27134215	         -3.35587878	         -0.31528022	          0.00000000	          0.32699963	          0.00000000	          0.00000000	          0.00000000	          0.00000000	          0.04805266	          0.00000000	
          1.18900000	          0.00000000	          0.00000000	          0.00000000	          0.00000000	          0.00000000	          0.00000000	        -40.03722059	        111.86656722	         -3.50321526	         -0.31888405	          0.00000000	          0.32915526	          0.00000000	          0.00000000	          0.00000000	          0.00000000	          0.14050978	          0.00000000	
          1.19000000	          0.00000000	          0.00000000	          0.00000000	          0.00000000	          0.00000000	          0.00000000	        -45.90307955	        149.13133787	         -3.12029663	         -0.32126681	          0.00000000	          0.33027234	          0.00000000	          0.00000000	          0.00000000	          0.00000000	          0.21087529	          0.00000000	
          1.19100000	          0.00000000	          0.00000000	          0.00000000	          0.00000000	          0.00000000	          0.00000000	        -50.23242074	        190.12066923	         -1.99001137	         -0.32273162	          0.00000000	          0.33064555	          0.00000000	          0.00000000	          0.00000000	          0.00000000	          0.25391669	          0.00000000	
          1.19200000	          0.00000000	          0.00000000	          0.00000000	          0.00000000	          0.00000000	          0.00000000	        -52.60287088	        232.07266975	          0.01490078	         -0.32357051	          0.00000000	          0.33055595	          0.00000000	          0.00000000	          0.00000000	          0.00000000	          0.27304141	          0.00000000	
          1.19300000	          0.00000000	          0.00000000	          0.00000000	          0.00000000	          0.00000000	          0.00000000	        -52.95631928	        272.02750135	          2.87243520	         -0.32400493	          0.00000000	          0.33024447	          0.00000000	          0.00000000	          0.00000000	          0.00000000	          0.27619259	          0.00000000	
          1.19400000	          0.00000000	          0.00000000	          0.00000000	          0.00000000	          0.00000000	          0.00000000	        -51.57450306	        307.42124873	          6.41893050	         -0.32417629	          0.00000000	          0.32984526	          0.00000000	          0.00000000	          0.00000000	          0.00000000	          0.26998908	          0.00000000	
          1.19500000	          0.00000000	          0.00000000	          0.00000000	          0.00000000	          0.00000000	          0.00000000	        -48.95646570	        336.46027764	         10.40044569	         -0.32416327	          0.00000000	          0.32942183	          0.00000000	          0.00000000	          0.00000000	          0.00000000	          0.26151998	          0.00000000	
          1.19600000	          0.00000000	          0.00000000	          0.00000000	          0.00000000	          0.00000000	          0.00000000	        -45.65874440	        358.26474636	         14.53617516	         -0.32399909	          0.00000000	          0.32903910	          0.00000000	          0.00000000	          0.00000000	          0.00000000	          0.25541933	          0.00000000	
          1.19700000	          0.00000000	          0.00000000	          0.00000000	          0.00000000	          0.00000000	          0.00000000	        -42.16445146	        372.85139438	         18.56626655	         -0.32369558	          0.00000000	          0.32877170	          0.00000000	          0.00000000	          0.00000000	          0.00000000	          0.25042707	          0.00000000	
          1.19800000	          0.00000000	          0.00000000	          0.00000000	          0.00000000	          0.00000000	          0.00000000	        -38.82293972	        381.01295153	         22.28001179	         -0.32328104	          0.00000000	          0.32865524	          0.00000000	          0.00000000	          0.00000000	          0.00000000	          0.24483524	          0.00000000	
          1.19900000	          0.00000000	          0.00000000	          0.00000000	          0.00000000	          0.00000000	          0.00000000	        -35.84726496	        384.10446295	         25.53725510	         -0.32281235	          0.00000000	          0.32865755	          0.00000000	          0.00000000	          0.00000000	          0.00000000	          0.24056217	          0.00000000	
          1.20000000	          0.00000000	          0.00000000	          0.00000000	          0.00000000	          0.00000000	          0.00000000	        -33.33752385	        383.76458381	         28.27971884	         -0.32234467	          0.00000000	          0.32871028	          0.00000000	          0.00000000	          0.00000000	          0.00000000	          0.23849464	          0.00000000	
          1.20100000	          0.00000000	          0.00000000	          0.00000000	          0.00000000	          0.00000000	          0.00000000	        -31.31491524	        381.66332593	         30.52457075	         -0.32190910	          0.00000000	          0.32875775	          0.00000000	          0.00000000	          0.00000000	          0.00000000	          0.23533783	          0.00000000	
          1.20200000	          0.00000000	          0.00000000	          0.00000000	          0.00000000	          0.00000000	          0.00000000	        -29.75493459	        379.34240264	         32.34121046	         -0.32151490	          0.00000000	          0.32876705	          0.00000000	          0.00000000	          0.00000000	          0.00000000	          0.22760856	          0.00000000	
          1.20300000	          0.00000000	          0.00000000	          0.00000000	          0.00000000	          0.00000000	          0.00000000	        -28.60850248	        378.08733088	         33.81029456	         -0.32115335	          0.00000000	          0.32872366	          0.00000000	          0.00000000	          0.00000000	          0.00000000	          0.21381520	          0.00000000	
          1.20400000	          0.00000000	          0.00000000	          0.00000000	          0.00000000	          0.00000000	          0.00000000	        -27.81484551	        378.77284862	         34.98373357	         -0.32080693	          0.00000000	          0.32865800	          0.00000000	          0.00000000	          0.00000000	          0.00000000	          0.19303006	          0.00000000	
          1.20500000	          0.00000000	          0.00000000	          0.00000000	          0.00000000	          0.00000000	          0.00000000	        -27.31228979	        381.80494810	         35.87667531	         -0.32045256	          0.00000000	          0.32862855	          0.00000000	          0.00000000	          0.00000000	          0.00000000	          0.16539744	          0.00000000	
          1.20600000	          0.00000000	          0.00000000	          0.00000000	          0.00000000	          0.00000000	          0.00000000	        -27.05129312	        387.22648714	         36.47854149	         -0.32006286	          0.00000000	          0.32864103	          0.00000000	          0.00000000	          0.00000000	          0.00000000	          0.13328474	          0.00000000	
